<?xml version="1.0" encoding="UTF-8"?>
<svg width="80px" height="79px" viewBox="0 0 80 79" version="1.1" xmlns="http://www.w3.org/2000/svg" xmlns:xlink="http://www.w3.org/1999/xlink">
    <!-- Generator: Sketch 44.1 (41455) - http://www.bohemiancoding.com/sketch -->
    <title>Group 17</title>
    <desc>Created with Sketch.</desc>
    <defs></defs>
    <g id="Page-1" stroke="none" stroke-width="1" fill="none" fill-rule="evenodd">
        <g id="Product-Dropdown" transform="translate(-298.000000, -310.000000)">
            <g id="Dropdown" transform="translate(258.000000, 80.000000)">
                <g id="CRO-Icon" transform="translate(40.000000, 229.000000)">
                    <g id="Group-17">
                        <circle id="Oval-2" fill="#3892E3" opacity="0.05" cx="38" cy="42" r="38"></circle>
                        <g id="Group-11" transform="translate(39.877385, 41.397328) rotate(67.000000) translate(-39.877385, -41.397328) translate(15.377385, 15.897328)" stroke-linecap="round" stroke="#2B3945" stroke-linejoin="round">
                            <g id="Group-14" transform="translate(0.522152, 0.754799)">
                                <polygon id="Path-6" points="35.5480482 9.16858067 13.6393384 9.80958807 5.11764423 27.8716062 17.3990202 43.4932574 34.8096441 41.489073 42.9894718 26.3677879 29.6566059 16.6401241 32.8492695 37.3702584 13.4330706 28.5042396 29.6566059 16.6401241 13.774944 10.271462 13.4330706 28.5042396 17.3990202 43.4932574 32.8492695 37.3702584 42.9894718 26.3677879"></polygon>
                                <path d="M13.2221899,28.4587151 L5.17691123,27.8926213" id="Line"></path>
                                <path d="M34.6176471,41.2254902 L32.8211814,37.5874384" id="Line"></path>
                                <path d="M29.7745098,16.6372549 L35.5600727,9.20528671" id="Line"></path>
                            </g>
                        </g>
                        <path d="M66.0155669,65.7087729 C66.0155669,65.7087729 66.4008944,65.2092339 67.0460159,65.550797 C67.0460159,65.5700612 67.5025654,65.9493181 66.9751286,66.5517453 C66.9751286,66.5517453 56.5480146,80.1908349 37.9702489,79.9505992 C37.9702489,79.9505992 23.4600966,81.4361681 9.82806363,68.114269 C9.82806363,68.114269 9.82806363,73.6465235 9.82806363,73.6465235 C9.82806363,73.6465235 9.78143393,74.2308176 9.111423,74.219065 C9.111423,74.2308176 8.50759573,74.2249412 8.45211647,73.5612681 L8.45211647,66.0668766 C8.45211647,66.0668766 8.42575805,65.3481962 9.26577526,65.3481962 L16.7437145,65.3481962 C16.7437145,65.3481962 17.3811843,65.3851822 17.3392872,66.0704017 C17.3392872,66.0668766 17.3059075,66.527138 16.6899945,66.648581 L9.92062213,66.648581 C9.92062213,66.648581 16.3660964,72.8998991 22.4050585,75.3791106 C22.4050585,75.3791106 29.2725276,79.0646865 37.9035955,78.802789 C37.9035955,78.802789 47.0104966,78.927919 54.7076236,74.7063349 C54.7076236,74.7063349 61.8941566,71.003591 65.8502257,65.9544893 M3.43278632,54.901564 C3.43278632,54.901564 3.67229073,55.4853807 3.05423232,55.8738667 C3.03756614,55.8642346 2.48118351,56.0703972 2.22372202,55.3119392 C2.22372202,55.3119392 -4.36235451,39.4529394 5.13436424,23.4676538 C5.13436424,23.4676538 11.1042249,10.145754 29.4454629,4.98884592 C29.4454629,4.98884592 24.659324,2.22271866 24.659324,2.22271866 C24.659324,2.22271866 24.1771466,1.89014751 24.5223196,1.3151789 C24.512152,1.30930267 24.8191493,0.788772106 25.421055,1.07251269 L31.9047042,4.81970834 C31.9047042,4.81970834 32.539638,5.15619794 32.1196294,5.88442417 L28.3806598,12.3671859 C28.3806598,12.3671859 28.029927,12.9013273 27.4580692,12.5223959 C27.4611188,12.5241585 27.0796211,12.2650904 27.2825132,11.6704228 L30.6671994,5.80193051 C30.6671994,5.80193051 22.0362374,8.26397041 16.8719075,12.2596509 C16.8719075,12.2596509 10.2496578,16.370397 6.16070016,23.9837758 C6.16070016,23.9837758 1.49899539,31.8161492 1.30266579,40.5997209 C1.30266579,40.5997209 0.912767071,48.681229 3.30287964,54.6353684 M44.0738555,6.05101606 C44.0738555,6.05101606 43.4490238,5.96673835 43.4219607,5.23668917 C43.4386269,5.22705707 43.5384601,4.64163742 44.3233583,4.79766847 C44.3233583,4.79766847 61.3365487,7.01757877 70.4175956,23.2431 C70.4175956,23.2431 78.9578872,35.0794309 74.2486824,53.5582381 C74.2486824,53.5582381 79.0348212,50.7921107 79.0348212,50.7921107 C79.0348212,50.7921107 79.5636284,50.5403879 79.8884663,51.127109 C79.8986339,51.1212326 80.1954637,51.6476396 79.6490374,52.0275723 L73.1653883,55.774768 C73.1653883,55.774768 72.5568128,56.1569588 72.1368043,55.4287326 L68.3978346,48.9459708 C68.3978346,48.9459708 68.1110975,48.3748436 68.7248525,48.0685553 C68.7218029,48.0703178 69.1366803,47.8691246 69.5497011,48.3423492 L72.9343873,54.2108414 C72.9343873,54.2108414 75.119875,45.4974832 74.2452428,39.0225914 C74.2452428,39.0225914 74.0000236,31.2262695 69.4579133,23.8747882 C69.4579133,23.8747882 65.012717,15.9172847 57.5119195,11.3552972 C57.5119195,11.3552972 50.7152853,6.97653276 44.3691036,6.07149525" id="Path-4" fill="#3892E3" fill-rule="nonzero"></path>
                    </g>
                </g>
            </g>
        </g>
    </g>
</svg>